<svg class="logo" viewBox="0 0 42 42" fill="none" xmlns="http://www.w3.org/2000/svg"><path d="M6 20.23h5a.27.27 0 0 0 .27-.23c.29-2.4.62-4.61 1-6.87a.27.27 0 0 0-.22-.3c-1.09-.2-2.23-.43-3.41-.62a.272.272 0 0 0-.09 0 .5.5 0 0 0-.3.2c-.31.46-.57 1-.83 1.44A14 14 0 0 0 5.69 20a.26.26 0 0 0 .31.23Zm6.36 8.68c-.38-2.3-.71-4.52-1.05-6.91a.27.27 0 0 0-.26-.23H5.9a.27.27 0 0 0-.26.29 14 14 0 0 0 1.94 6.35c.82 1.39.82 1.39 2.42 1.13.73-.14 1.45-.23 2.1-.32a.26.26 0 0 0 .21-.31h.05Zm3.14-17.77c1.4.09 2.83.14 4.19.22a.26.26 0 0 0 .31-.26v-5a.27.27 0 0 0-.36-.25 9.09 9.09 0 0 0-4.35 4.94.26.26 0 0 0 .21.35Zm13.32-.48c0 .1.2.21.36.16.82-.09 1.6-.21 2.46-.34a.27.27 0 0 0 .15-.45 15.09 15.09 0 0 0-4.4-3 .27.27 0 0 0-.34.37c.57 1.03 1.17 2.15 1.77 3.26Zm-6.51.7c1.34-.08 2.75-.13 4.21-.21a.26.26 0 0 0 .22-.38c-1-2.11-2.15-4-4.35-4.9a.26.26 0 0 0-.36.24v5a.26.26 0 0 0 .28.25Zm0 10.41a.268.268 0 0 0-.275.13.271.271 0 0 0-.035.1v6.38a.26.26 0 0 0 .25.26c1.48.1 3.29.24 4.88.34h.13a.68.68 0 0 0 .35-.34c.3-1.38.61-2.93.87-4.32.12-.758.184-1.523.19-2.29a.26.26 0 0 0-.26-.28l-6.1.02ZM10.42 10.48l2.27.38h.06a.63.63 0 0 0 .58-.35c.51-1 1.08-2.05 1.64-3.08a.27.27 0 0 0-.32-.43 16.311 16.311 0 0 0-4.38 3 .26.26 0 0 0 .15.48Zm25.67 11.29H31a.27.27 0 0 0-.26.23c-.34 2.39-.67 4.61-1 6.87a.258.258 0 0 0 .22.3c1.08.2 2.21.43 3.34.62a.3.3 0 0 0 .16 0 .74.74 0 0 0 .26-.23 14.65 14.65 0 0 0 2.65-7.48.27.27 0 0 0-.28-.31Zm-3.7-9.41h-.3c-.77.14-1.54.23-2.23.36a.27.27 0 0 0-.22.31c.24 1.16.48 2.34.67 3.44.19 1.1.25 2.1.34 3.51a.27.27 0 0 0 .27.25h5.18a.26.26 0 0 0 .26-.28 15.45 15.45 0 0 0-2.09-6.72c-.61-1.07-.62-1.13-1.82-.88l-.06.01Zm-.76 19.21c-.76-.12-1.46-.21-2.13-.33a.58.58 0 0 0-.86.42 6.177 6.177 0 0 1-.41.92c-.39.71-.82 1.39-1.23 2.11a.27.27 0 0 0 .177.394.27.27 0 0 0 .163-.014 16.159 16.159 0 0 0 4.47-3 .265.265 0 0 0-.18-.5Zm-18.4-.18c-.05-.15-.33-.2-.49-.21-.77.08-1.5.2-2.34.33a.27.27 0 0 0-.15.45A15.262 15.262 0 0 0 14.62 35a.26.26 0 0 0 .34-.36c-.56-1.07-1.13-2.18-1.73-3.25Zm13.3-.5c-1.46-.12-2.88-.21-4.23-.26a.25.25 0 0 0-.27.26v5a.27.27 0 0 0 .37.25c2.2-1 3.32-2.8 4.35-4.91a.27.27 0 0 0-.22-.34Zm-6.84-.25c-1.35.08-2.77.13-4.16.21a.269.269 0 0 0-.244.239.27.27 0 0 0 .014.121c.69 1.89 2.51 4.52 4.36 4.92a.27.27 0 0 0 .31-.26v-5a.26.26 0 0 0-.28-.23Zm.07-8.87h-6.11a.27.27 0 0 0-.26.27c0 2.028.276 4.047.82 6 .26.92.26 1 1.22.87H16c1.26-.05 2.39-.1 3.82-.19a.26.26 0 0 0 .24-.26V22a.27.27 0 0 0-.3-.23Zm3.51-5.13a.721.721 0 0 0-1.06-.64.69.69 0 0 0-.38.64.82.82 0 0 1-1 .81.85.85 0 0 1-.66-.83.731.731 0 0 0-.85-.69.74.74 0 0 0-.59.76 2.27 2.27 0 0 0 4.54-.05Z" fill="#000"/><path d="M21.29 0a21 21 0 1 0-.576 41.997A21 21 0 0 0 21.29 0ZM21 38.33A17.33 17.33 0 1 1 38.33 21 17.34 17.34 0 0 1 21 38.33Z" fill="#000"/><circle class="logo__eye" cx="15.34" cy="16.9" r="2.14" fill="#000"/><circle class="logo__eye" cx="26.66" cy="16.9" r="2.14" fill="#000"/></svg>