<svg xmlns="http://www.w3.org/2000/svg" xmlns:xlink="http://www.w3.org/1999/xlink" version="1.1" viewBox="43.34 47.84 802.53 205.79">
<defs>
<linearGradient id="linear0" gradientUnits="userSpaceOnUse" x1="24.95" y1="28.49" x2="449.1" y2="136.906" gradientTransform="matrix(1.803607,0,0,1.805195,0,0)">
<stop offset="0" style="stop-color:rgb(99.607843%,58.039216%,38.431373%);stop-opacity:1;"/>
<stop offset="0.2" style="stop-color:rgb(99.607843%,21.568627%,35.686275%);stop-opacity:1;"/>
<stop offset="0.38" style="stop-color:rgb(99.215686%,39.607843%,62.745098%);stop-opacity:1;"/>
<stop offset="0.5" style="stop-color:rgb(74.901961%,47.45098%,73.72549%);stop-opacity:1;"/>
<stop offset="0.66" style="stop-color:rgb(33.72549%,36.470588%,67.843137%);stop-opacity:1;"/>
<stop offset="0.8" style="stop-color:rgb(24.313725%,53.72549%,78.039216%);stop-opacity:1;"/>
<stop offset="1" style="stop-color:rgb(31.372549%,80.392157%,79.607843%);stop-opacity:1;"/>
</linearGradient>
<linearGradient id="linear1" gradientUnits="userSpaceOnUse" x1="24.95" y1="28.49" x2="449.1" y2="136.906" gradientTransform="matrix(1.803607,0,0,1.805195,0,0)">
<stop offset="0" style="stop-color:rgb(99.607843%,58.039216%,38.431373%);stop-opacity:1;"/>
<stop offset="0.2" style="stop-color:rgb(99.607843%,21.568627%,35.686275%);stop-opacity:1;"/>
<stop offset="0.38" style="stop-color:rgb(99.215686%,39.607843%,62.745098%);stop-opacity:1;"/>
<stop offset="0.5" style="stop-color:rgb(74.901961%,47.45098%,73.72549%);stop-opacity:1;"/>
<stop offset="0.66" style="stop-color:rgb(33.72549%,36.470588%,67.843137%);stop-opacity:1;"/>
<stop offset="0.8" style="stop-color:rgb(24.313725%,53.72549%,78.039216%);stop-opacity:1;"/>
<stop offset="1" style="stop-color:rgb(31.372549%,80.392157%,79.607843%);stop-opacity:1;"/>
</linearGradient>
<linearGradient id="linear2" gradientUnits="userSpaceOnUse" x1="24.95" y1="28.49" x2="449.1" y2="136.906" gradientTransform="matrix(1.803607,0,0,1.805195,0,0)">
<stop offset="0" style="stop-color:rgb(99.607843%,58.039216%,38.431373%);stop-opacity:1;"/>
<stop offset="0.2" style="stop-color:rgb(99.607843%,21.568627%,35.686275%);stop-opacity:1;"/>
<stop offset="0.38" style="stop-color:rgb(99.215686%,39.607843%,62.745098%);stop-opacity:1;"/>
<stop offset="0.5" style="stop-color:rgb(74.901961%,47.45098%,73.72549%);stop-opacity:1;"/>
<stop offset="0.66" style="stop-color:rgb(33.72549%,36.470588%,67.843137%);stop-opacity:1;"/>
<stop offset="0.8" style="stop-color:rgb(24.313725%,53.72549%,78.039216%);stop-opacity:1;"/>
<stop offset="1" style="stop-color:rgb(31.372549%,80.392157%,79.607843%);stop-opacity:1;"/>
</linearGradient>
<linearGradient id="linear3" gradientUnits="userSpaceOnUse" x1="24.95" y1="28.49" x2="449.1" y2="136.906" gradientTransform="matrix(1.803607,0,0,1.805195,0,0)">
<stop offset="0" style="stop-color:rgb(99.607843%,58.039216%,38.431373%);stop-opacity:1;"/>
<stop offset="0.2" style="stop-color:rgb(99.607843%,21.568627%,35.686275%);stop-opacity:1;"/>
<stop offset="0.38" style="stop-color:rgb(99.215686%,39.607843%,62.745098%);stop-opacity:1;"/>
<stop offset="0.5" style="stop-color:rgb(74.901961%,47.45098%,73.72549%);stop-opacity:1;"/>
<stop offset="0.66" style="stop-color:rgb(33.72549%,36.470588%,67.843137%);stop-opacity:1;"/>
<stop offset="0.8" style="stop-color:rgb(24.313725%,53.72549%,78.039216%);stop-opacity:1;"/>
<stop offset="1" style="stop-color:rgb(31.372549%,80.392157%,79.607843%);stop-opacity:1;"/>
</linearGradient>
</defs>
<g id="surface1">
<path style=" stroke:none;fill-rule:nonzero;fill:url(#linear0);" d="M 110.921875 252.816406 C 110.199219 252.367188 106.773438 251.375 103.347656 250.5625 C 94.328125 248.304688 89.457031 244.511719 68.265625 223.394531 C 45.992188 201.007812 43.917969 197.847656 43.46875 185.03125 C 43.105469 177.902344 43.375 176.910156 46.261719 170.589844 C 48.699219 165.175781 51.042969 162.015625 57.625 155.246094 C 68.445312 144.054688 68.535156 143.875 64.207031 142.699219 C 56.722656 140.625 49.417969 134.035156 45.632812 125.914062 C 44.097656 122.664062 43.917969 119.683594 43.738281 97.480469 C 43.558594 73.652344 43.648438 72.386719 45.722656 66.792969 C 48.425781 58.941406 54.019531 53.613281 62.675781 50.273438 L 69.078125 47.835938 L 425.652344 48.109375 L 782.316406 48.289062 L 788.808594 50.183594 C 792.324219 51.175781 797.015625 53.253906 799.179688 54.699219 C 801.34375 56.140625 811.804688 65.980469 822.535156 76.722656 C 841.292969 95.40625 842.105469 96.308594 843.996094 101.902344 C 849.136719 117.429688 843.546875 132.230469 829.570312 140.261719 C 824.699219 143.0625 812.253906 144.597656 798.277344 144.234375 L 789.890625 144.054688 L 782.675781 150.644531 C 778.257812 154.707031 775.550781 157.863281 775.730469 158.765625 C 775.910156 159.578125 778.257812 161.292969 780.960938 162.738281 C 784.660156 164.542969 790.792969 170.050781 805.039062 184.308594 C 828.667969 207.867188 830.109375 210.125 829.480469 223.121094 C 829.207031 230.253906 828.757812 232.238281 826.503906 236.300781 C 821.722656 245.054688 812.613281 251.824219 805.582031 251.824219 C 804.410156 251.824219 803.507812 252.277344 803.507812 252.726562 C 803.507812 253.359375 772.9375 253.539062 711.34375 253.449219 L 619.089844 253.179688 L 612.414062 251.101562 C 601.414062 247.671875 595.550781 243.519531 580.761719 228.898438 C 573.367188 221.585938 566.875 215.8125 566.421875 216.171875 C 565.882812 216.441406 565.429688 219.511719 565.429688 223.03125 C 565.429688 226.550781 565.070312 229.257812 564.527344 229.257812 C 564.078125 229.257812 563.628906 229.980469 563.628906 230.976562 C 563.628906 237.292969 554.429688 247.761719 546.492188 250.5625 C 544.238281 251.375 541.714844 252.367188 540.902344 252.816406 C 539.910156 253.269531 488.507812 253.628906 416.183594 253.628906 L 292.996094 253.628906 L 284.699219 250.742188 L 276.402344 247.851562 L 255.570312 227.273438 C 244.207031 215.992188 234.109375 206.695312 233.296875 206.695312 C 232.484375 206.695312 227.886719 210.667969 223.015625 215.539062 C 218.144531 220.324219 212.105469 225.921875 209.667969 227.996094 C 204.710938 232.058594 192.625 240.089844 191.453125 240.089844 C 191.003906 240.089844 189.109375 240.902344 187.214844 241.988281 C 180.359375 245.6875 166.832031 249.929688 158.355469 251.011719 C 153.578125 251.734375 149.699219 252.546875 149.699219 252.90625 C 149.699219 253.902344 112.636719 253.71875 110.921875 252.816406 Z M 155.289062 227.996094 C 166.5625 225.921875 177.113281 221.40625 189.648438 213.195312 C 195.242188 209.582031 234.199219 171.3125 271.714844 132.863281 C 287.945312 116.074219 288.398438 118.601562 264.949219 94.953125 C 254.851562 84.84375 244.839844 75.546875 242.675781 74.195312 L 238.617188 71.847656 L 218.957031 71.9375 C 201.914062 72.027344 198.9375 72.296875 196.59375 73.652344 C 194.339844 75.003906 193.886719 75.910156 193.886719 78.796875 C 193.886719 82.226562 194.609375 83.128906 210.300781 99.015625 C 231.3125 120.226562 231.3125 120.226562 248.628906 120.496094 C 262.695312 120.765625 264.226562 121.21875 264.226562 125.550781 C 264.226562 127.71875 261.613281 130.875 248.808594 143.964844 C 229.417969 163.640625 220.582031 170.230469 206.601562 175.285156 C 203.808594 176.277344 200.378906 177.632812 198.847656 178.261719 C 197.40625 178.894531 193.527344 179.707031 190.28125 180.066406 C 183.515625 180.878906 155.289062 180.972656 154.570312 180.25 C 153.488281 179.253906 156.28125 176.097656 168.636719 163.910156 C 183.246094 149.558594 184.417969 148.027344 183.425781 145.136719 C 181.625 139.359375 178.917969 141.074219 160.160156 160.121094 C 148.347656 172.125 142.664062 177.269531 139.507812 178.714844 C 135.179688 180.699219 134.277344 180.789062 107.585938 180.699219 C 92.523438 180.699219 79.898438 180.429688 79.539062 180.160156 C 79.269531 179.796875 92.253906 166.257812 108.488281 150.011719 L 138.066406 120.496094 L 171.613281 120.316406 C 204.890625 120.136719 205.160156 120.136719 206.695312 118.242188 C 207.59375 117.15625 208.316406 114.992188 208.316406 113.457031 C 208.316406 111.109375 205.792969 108.3125 189.648438 92.425781 C 172.515625 75.636719 170.621094 74.011719 166.382812 72.929688 C 162.957031 72.027344 151.503906 71.847656 116.785156 72.027344 C 91.984375 72.117188 71.0625 72.480469 70.25 72.660156 C 67.09375 73.652344 66.371094 77.625 66.011719 94.230469 C 65.652344 111.921875 65.921875 114.902344 68.445312 118.148438 L 70.070312 120.226562 L 96.492188 120.40625 C 117.59375 120.496094 123.007812 120.765625 123.367188 121.671875 C 123.546875 122.390625 112.09375 134.398438 96.671875 149.652344 C 70.703125 175.464844 66.734375 179.976562 66.734375 184.128906 C 66.734375 187.832031 69.4375 191.078125 87.65625 209.042969 C 100.730469 221.949219 106.863281 227.453125 109.117188 228.085938 C 113.808594 229.53125 146.902344 229.441406 155.289062 227.996094 Z M 447.476562 227.726562 C 451.625 223.933594 451.261719 223.484375 413.566406 185.574219 C 380.832031 152.71875 369.558594 142.609375 365.773438 142.609375 C 365.230469 142.609375 363.605469 141.980469 362.074219 141.167969 C 356.574219 138.277344 348.097656 137.285156 332.675781 137.644531 C 324.558594 137.738281 316.984375 138.1875 315.8125 138.546875 C 313.46875 139.269531 312.203125 143.152344 313.738281 144.6875 C 314.367188 145.316406 321.042969 145.949219 332.042969 146.402344 C 352.785156 147.214844 357.292969 147.9375 363.789062 151.636719 C 378.398438 159.941406 384.980469 171.222656 379.207031 178.261719 L 376.953125 180.972656 L 333.488281 180.699219 C 284.429688 180.429688 287.222656 180.789062 283.4375 173.296875 C 278.746094 164.09375 280.640625 160.753906 303.007812 138.640625 L 320.953125 120.949219 L 370.820312 120.765625 C 418.796875 120.496094 442.875 120.675781 443.507812 121.308594 C 443.597656 121.488281 443.957031 123.113281 444.320312 124.828125 C 444.769531 127.898438 444.410156 128.53125 438.816406 134.398438 C 433.765625 139.542969 432.777344 141.074219 433.046875 143.242188 C 433.316406 145.410156 433.765625 145.769531 436.382812 146.039062 C 439.179688 146.3125 440.261719 145.410156 452.34375 133.496094 C 463.707031 122.210938 465.332031 120.226562 465.332031 117.699219 C 465.332031 115.082031 463.074219 112.554688 445.402344 94.863281 C 434.398438 83.851562 424.207031 74.195312 422.675781 73.289062 C 419.96875 71.847656 414.109375 71.757812 345.300781 71.757812 C 281.183594 71.757812 270.632812 71.9375 269.1875 73.109375 C 267.113281 74.824219 266.03125 77.804688 267.023438 79.429688 C 268.105469 81.503906 300.300781 113.90625 304.179688 116.796875 C 305.980469 118.242188 307.515625 119.957031 307.515625 120.675781 C 307.515625 121.308594 294.980469 134.398438 279.648438 149.742188 C 249.980469 179.4375 248.628906 181.0625 250.609375 187.109375 C 251.695312 190.359375 287.765625 226.824219 291.371094 228.265625 C 292.726562 228.808594 322.84375 229.167969 369.648438 229.167969 C 439.269531 229.257812 445.941406 229.167969 447.476562 227.726562 Z M 539.730469 227.003906 C 542.523438 224.296875 542.613281 221.40625 540 217.886719 C 538.828125 216.441406 531.433594 208.769531 523.496094 200.828125 C 510.332031 187.648438 508.4375 186.117188 502.753906 183.769531 C 496.894531 181.421875 495.269531 181.242188 481.5625 180.789062 L 466.683594 180.339844 L 463.707031 177.539062 C 460.011719 174.019531 458.566406 169.417969 459.46875 163.730469 C 460.101562 159.488281 460.820312 158.675781 479.398438 139.902344 L 498.699219 120.496094 L 531.34375 120.226562 C 549.378906 120.046875 565.429688 120.226562 567.144531 120.496094 C 571.925781 121.398438 574.449219 124.558594 574.449219 129.703125 C 574.449219 132.230469 573.816406 135.027344 572.914062 136.292969 C 572.105469 137.554688 565.882812 144.234375 558.9375 151.273438 C 552.085938 158.226562 546.492188 164.453125 546.492188 165.085938 C 546.492188 167.523438 548.476562 169.6875 550.640625 169.6875 C 552.355469 169.6875 556.140625 166.527344 565.972656 156.871094 C 579.046875 143.964844 589.238281 136.203125 599.789062 130.875 C 605.109375 128.167969 618.367188 123.566406 625.851562 121.851562 C 635.320312 119.683594 682.574219 120.226562 683.386719 122.574219 C 683.566406 123.203125 670.941406 136.5625 655.339844 152.179688 L 627.023438 180.609375 L 604.839844 180.789062 C 583.917969 180.972656 582.566406 181.0625 580.128906 182.867188 C 578.238281 184.308594 577.515625 185.664062 577.335938 188.28125 C 577.0625 191.710938 577.335938 192.074219 592.664062 207.328125 C 601.234375 215.902344 609.4375 223.753906 610.792969 224.835938 C 615.933594 228.808594 619.988281 229.257812 648.125 229.257812 C 673.375 229.257812 674.640625 229.167969 676.351562 227.453125 C 677.523438 226.28125 678.15625 224.476562 678.15625 222.21875 C 678.15625 219.058594 677.164062 217.886719 661.382812 201.910156 C 652.09375 192.613281 643.4375 184.402344 641.992188 183.589844 C 640.550781 182.867188 639.378906 181.78125 639.378906 181.152344 C 639.378906 180.609375 652.816406 166.710938 669.136719 150.28125 C 703.859375 115.621094 702.324219 118.058594 693.757812 109.304688 C 663.90625 78.796875 660.300781 75.457031 656.601562 73.742188 C 652.726562 72.027344 649.839844 71.9375 552.445312 71.847656 C 475.429688 71.757812 451.804688 72.027344 450.359375 72.839844 C 447.292969 74.554688 445.941406 78.707031 447.476562 81.683594 C 449.1875 84.84375 478.316406 114.089844 482.195312 116.523438 C 483.816406 117.609375 485.171875 119.144531 485.171875 120.046875 C 485.171875 121.128906 475.429688 131.597656 460.820312 146.222656 C 432.144531 175.011719 429.257812 178.351562 429.257812 183.226562 C 429.257812 185.121094 429.710938 187.832031 430.160156 189.183594 C 431.152344 191.710938 454.328125 215.8125 462.085938 222.308594 C 469.929688 228.988281 471.554688 229.167969 506.632812 229.257812 L 537.566406 229.257812 Z M 804.226562 226.550781 C 808.195312 221.226562 807.746094 220.414062 788.898438 201.640625 C 779.339844 192.164062 770.050781 183.589844 768.335938 182.6875 C 765.632812 181.242188 762.835938 180.972656 748.136719 180.789062 C 729.109375 180.609375 728.296875 180.339844 728.296875 174.742188 C 728.296875 171.855469 730.191406 169.6875 753.726562 146.039062 L 779.160156 120.496094 L 798.007812 120.496094 C 816.492188 120.496094 816.945312 120.496094 819.109375 118.421875 C 822.445312 115.261719 822.625 111.5625 819.738281 107.589844 C 818.386719 105.785156 810.359375 97.480469 802.0625 89.265625 C 790.882812 78.253906 785.832031 73.921875 783.214844 73.019531 C 780.332031 72.027344 770.050781 71.757812 731.632812 71.757812 L 683.746094 71.757812 L 681.855469 73.921875 C 680.589844 75.367188 679.960938 77.351562 679.960938 79.609375 C 679.960938 82.949219 680.679688 83.851562 692.855469 95.945312 C 701.964844 105.152344 707.375 109.753906 711.523438 112.011719 C 722.164062 117.878906 735.148438 121.039062 747.59375 120.859375 C 753.816406 120.765625 754.449219 120.949219 756.34375 123.113281 C 757.515625 124.46875 758.417969 126.183594 758.417969 126.996094 C 758.417969 128.441406 745.519531 141.980469 721.53125 165.625 C 713.507812 173.570312 706.742188 180.25 706.5625 180.429688 C 706.382812 180.609375 697.636719 180.789062 687.265625 180.878906 C 668.597656 180.972656 668.328125 180.972656 666.070312 183.136719 C 664.449219 184.671875 663.726562 186.296875 663.726562 188.460938 C 663.726562 191.261719 664.988281 192.886719 675.269531 203.355469 C 693.125 221.585938 698.265625 226.371094 701.601562 227.816406 C 704.308594 228.988281 712.15625 229.167969 753.546875 229.257812 L 802.246094 229.257812 Z M 804.226562 226.550781 "/>
<path style=" stroke:none;fill-rule:nonzero;fill:url(#linear1);" d="M 82.515625 101.902344 C 78.546875 98.382812 78.277344 94.683594 81.792969 90.710938 C 83.777344 88.453125 84.769531 88.003906 88.105469 88.09375 C 93.699219 88.183594 96.042969 90.710938 95.953125 96.308594 C 95.863281 99.828125 95.410156 100.820312 93.246094 102.625 C 89.640625 105.511719 86.394531 105.242188 82.515625 101.902344 Z M 82.515625 101.902344 "/>
<path style=" stroke:none;fill-rule:nonzero;fill:url(#linear2);" d="M 103.4375 102.175781 C 100.460938 99.015625 100.101562 93.417969 102.714844 90.167969 C 105.148438 87.101562 111.644531 87.101562 114.890625 90.167969 C 118.40625 93.507812 118.226562 99.195312 114.4375 102.355469 C 110.652344 105.511719 106.59375 105.511719 103.4375 102.175781 Z M 103.4375 102.175781 "/>
<path style=" stroke:none;fill-rule:nonzero;fill:url(#linear3);" d="M 125.082031 102.894531 C 121.5625 100.097656 120.75 96.578125 122.644531 92.335938 C 123.996094 89.355469 124.808594 88.542969 127.515625 88.09375 C 131.933594 87.28125 135.359375 88.996094 137.34375 93.238281 C 138.789062 96.308594 138.789062 96.847656 137.523438 99.285156 C 134.730469 104.609375 129.320312 106.234375 125.082031 102.894531 Z M 125.082031 102.894531 "/>
</g>
</svg>