<?xml version="1.0" encoding="utf-8"?>
<!DOCTYPE svg PUBLIC "-//W3C//DTD SVG 20010904//EN" "http://www.w3.org/TR/2001/REC-SVG-20010904/DTD/svg10.dtd">
<svg version="1.0" xmlns="http://www.w3.org/2000/svg" width="499px" height="154px" viewBox="0 0 499 154" preserveAspectRatio="xMidYMid meet">
 <g fill="#000000">
  <path d="M61.50 140.05 c-0.40 -0.25 -2.30 -0.80 -4.20 -1.25 -5 -1.25 -7.70 -3.35 -19.45 -15.05 -12.35 -12.40 -13.50 -14.15 -13.75 -21.25 -0.20 -3.95 -0.05 -4.50 1.55 -8 1.35 -3 2.65 -4.75 6.30 -8.50 6 -6.20 6.05 -6.30 3.65 -6.95 -4.15 -1.15 -8.20 -4.80 -10.30 -9.30 -0.85 -1.80 -0.95 -3.45 -1.05 -15.75 -0.10 -13.20 -0.05 -13.90 1.10 -17 1.50 -4.35 4.60 -7.30 9.40 -9.15 3.55 -1.35 3.55 -1.35 201.25 -1.20 197.75 0.10 197.75 0.10 201.35 1.15 1.95 0.55 4.55 1.70 5.75 2.50 1.20 0.80 7 6.25 12.95 12.20 10.40 10.35 10.85 10.85 11.90 13.95 2.85 8.60 -0.25 16.80 -8 21.25 -2.70 1.55 -9.60 2.40 -17.35 2.20 -4.65 -0.10 -4.65 -0.10 -8.65 3.55 -2.45 2.25 -3.95 4 -3.85 4.50 0.10 0.45 1.40 1.40 2.90 2.20 2.05 1 5.45 4.05 13.35 11.95 13.10 13.05 13.90 14.30 13.55 21.50 -0.15 3.95 -0.40 5.05 -1.65 7.30 -2.65 4.85 -7.70 8.60 -11.60 8.60 -0.65 0 -1.15 0.25 -1.15 0.50 0 0.35 -16.95 0.45 -51.10 0.40 -51.15 -0.15 -51.15 -0.15 -54.85 -1.30 -6.10 -1.90 -9.35 -4.20 -17.55 -12.30 -4.10 -4.05 -7.70 -7.25 -7.95 -7.05 -0.30 0.15 -0.55 1.85 -0.55 3.80 0 1.95 -0.20 3.45 -0.50 3.45 -0.25 0 -0.50 0.40 -0.50 0.95 0 3.50 -5.10 9.30 -9.50 10.85 -1.25 0.45 -2.65 1 -3.10 1.25 -0.55 0.25 -29.05 0.45 -69.15 0.45 -68.30 0 -68.30 0 -72.90 -1.60 -4.60 -1.60 -4.60 -1.60 -16.15 -13 -6.30 -6.25 -11.90 -11.40 -12.35 -11.40 -0.45 0 -3 2.20 -5.70 4.90 -2.70 2.65 -6.05 5.75 -7.40 6.90 -2.75 2.25 -9.45 6.70 -10.10 6.70 -0.25 0 -1.30 0.45 -2.35 1.05 -3.80 2.05 -11.30 4.40 -16 5 -2.65 0.40 -4.80 0.85 -4.80 1.05 0 0.55 -20.55 0.45 -21.50 -0.05z m24.60 -13.75 c6.25 -1.15 12.10 -3.65 19.05 -8.20 3.10 -2 24.70 -23.20 45.50 -44.50 9 -9.30 9.25 -7.90 -3.75 -21 -5.60 -5.60 -11.15 -10.75 -12.35 -11.50 -2.25 -1.30 -2.25 -1.30 -13.15 -1.25 -9.45 0.05 -11.10 0.20 -12.40 0.95 -1.25 0.75 -1.50 1.25 -1.50 2.85 0 1.90 0.40 2.40 9.10 11.20 11.65 11.75 11.65 11.75 21.25 11.90 7.80 0.15 8.65 0.40 8.65 2.80 0 1.20 -1.45 2.95 -8.55 10.20 -10.75 10.90 -15.65 14.55 -23.40 17.35 -1.55 0.55 -3.45 1.30 -4.30 1.65 -0.80 0.35 -2.95 0.80 -4.75 1 -3.75 0.45 -19.40 0.50 -19.80 0.10 -0.60 -0.55 0.95 -2.30 7.80 -9.05 8.10 -7.95 8.75 -8.80 8.20 -10.40 -1 -3.20 -2.50 -2.25 -12.90 8.30 -6.55 6.65 -9.70 9.50 -11.45 10.30 -2.40 1.10 -2.90 1.15 -17.70 1.10 -8.35 0 -15.35 -0.15 -15.55 -0.30 -0.15 -0.20 7.05 -7.70 16.05 -16.70 16.40 -16.35 16.40 -16.35 35 -16.45 18.45 -0.10 18.60 -0.10 19.45 -1.15 0.50 -0.60 0.90 -1.80 0.90 -2.65 0 -1.30 -1.40 -2.85 -10.35 -11.65 -9.50 -9.30 -10.55 -10.20 -12.90 -10.80 -1.90 -0.50 -8.25 -0.60 -27.50 -0.50 -13.75 0.05 -25.35 0.25 -25.80 0.35 -1.75 0.55 -2.15 2.75 -2.35 11.95 -0.20 9.80 -0.05 11.45 1.35 13.25 0.90 1.15 0.90 1.15 15.55 1.25 11.70 0.05 14.70 0.20 14.90 0.70 0.10 0.40 -6.25 7.05 -14.80 15.50 -14.40 14.30 -16.60 16.80 -16.60 19.10 0 2.05 1.50 3.85 11.60 13.80 7.25 7.15 10.65 10.20 11.90 10.55 2.60 0.80 20.95 0.75 25.60 -0.05z m162 -0.15 c2.30 -2.10 2.10 -2.35 -18.80 -23.35 -18.15 -18.20 -24.40 -23.80 -26.50 -23.80 -0.30 0 -1.20 -0.35 -2.05 -0.80 -3.05 -1.60 -7.75 -2.15 -16.30 -1.95 -4.50 0.05 -8.70 0.30 -9.35 0.50 -1.30 0.40 -2 2.55 -1.15 3.40 0.35 0.35 4.05 0.70 10.15 0.95 11.50 0.45 14 0.85 17.60 2.90 8.10 4.60 11.75 10.85 8.55 14.75 -1.25 1.50 -1.25 1.50 -25.35 1.35 -27.20 -0.15 -25.65 0.05 -27.75 -4.10 -2.60 -5.10 -1.55 -6.95 10.85 -19.20 9.95 -9.80 9.95 -9.80 37.60 -9.90 26.60 -0.15 39.95 -0.05 40.30 0.30 0.05 0.10 0.25 1 0.45 1.95 0.25 1.70 0.05 2.05 -3.05 5.30 -2.80 2.85 -3.35 3.70 -3.20 4.90 0.15 1.20 0.40 1.40 1.85 1.55 1.55 0.15 2.15 -0.35 8.85 -6.95 6.30 -6.25 7.20 -7.35 7.20 -8.75 0 -1.45 -1.25 -2.85 -11.05 -12.65 -6.10 -6.10 -11.75 -11.45 -12.60 -11.95 -1.50 -0.80 -4.75 -0.85 -42.90 -0.85 -35.55 0 -41.40 0.10 -42.20 0.75 -1.15 0.95 -1.75 2.60 -1.20 3.50 0.60 1.15 18.45 19.10 20.60 20.70 1 0.80 1.85 1.75 1.85 2.15 0 0.35 -6.95 7.60 -15.45 16.10 -16.45 16.45 -17.20 17.35 -16.10 20.70 0.60 1.80 20.60 22 22.60 22.80 0.75 0.30 17.45 0.50 43.40 0.50 38.60 0.05 42.30 0 43.15 -0.80z m51.15 -0.40 c1.55 -1.50 1.60 -3.10 0.15 -5.05 -0.65 -0.80 -4.75 -5.05 -9.15 -9.45 -7.30 -7.30 -8.35 -8.15 -11.50 -9.45 -3.25 -1.30 -4.15 -1.40 -11.75 -1.65 -8.25 -0.25 -8.25 -0.25 -9.90 -1.80 -2.05 -1.95 -2.85 -4.50 -2.35 -7.65 0.35 -2.35 0.75 -2.80 11.05 -13.20 10.70 -10.75 10.70 -10.75 28.80 -10.90 10 -0.10 18.90 0 19.85 0.15 2.65 0.50 4.05 2.25 4.05 5.10 0 1.40 -0.35 2.95 -0.85 3.65 -0.45 0.70 -3.90 4.40 -7.75 8.30 -3.80 3.85 -6.90 7.30 -6.90 7.65 0 1.35 1.10 2.55 2.30 2.55 0.95 0 3.05 -1.75 8.50 -7.10 7.25 -7.15 12.90 -11.45 18.75 -14.40 2.95 -1.50 10.30 -4.05 14.45 -5 5.25 -1.20 31.45 -0.90 31.90 0.40 0.10 0.35 -6.90 7.75 -15.55 16.40 -15.70 15.75 -15.70 15.75 -28 15.85 -11.60 0.10 -12.35 0.15 -13.70 1.15 -1.05 0.80 -1.45 1.55 -1.55 3 -0.15 1.90 0 2.10 8.50 10.55 4.75 4.75 9.30 9.10 10.05 9.70 2.85 2.20 5.10 2.45 20.70 2.45 14 0 14.70 -0.05 15.65 -1 0.65 -0.65 1 -1.65 1 -2.90 0 -1.75 -0.55 -2.40 -9.30 -11.25 -5.15 -5.15 -9.95 -9.70 -10.75 -10.15 -0.80 -0.40 -1.45 -1 -1.45 -1.35 0 -0.30 7.45 -8 16.50 -17.10 19.25 -19.20 18.40 -17.85 13.65 -22.70 -16.55 -16.90 -18.55 -18.75 -20.60 -19.70 -2.15 -0.95 -3.75 -1 -57.75 -1.05 -42.70 -0.05 -55.80 0.10 -56.60 0.55 -1.70 0.95 -2.45 3.25 -1.60 4.90 0.95 1.75 17.10 17.95 19.25 19.30 0.90 0.60 1.65 1.45 1.65 1.95 0 0.60 -5.40 6.40 -13.50 14.50 -15.90 15.95 -17.50 17.80 -17.50 20.50 0 1.05 0.25 2.55 0.50 3.30 0.55 1.40 13.40 14.75 17.70 18.35 4.35 3.70 5.25 3.80 24.70 3.85 17.15 0 17.15 0 18.35 -1.25z m146.65 -0.25 c2.20 -2.95 1.95 -3.40 -8.50 -13.80 -5.30 -5.25 -10.45 -10 -11.40 -10.50 -1.50 -0.80 -3.05 -0.95 -11.20 -1.05 -10.55 -0.10 -11 -0.25 -11 -3.35 0 -1.60 1.05 -2.80 14.10 -15.90 14.10 -14.15 14.10 -14.15 24.55 -14.15 10.25 0 10.50 0 11.70 -1.15 1.85 -1.75 1.95 -3.80 0.35 -6 -0.75 -1 -5.20 -5.60 -9.80 -10.15 -6.20 -6.10 -9 -8.50 -10.45 -9 -1.60 -0.55 -7.30 -0.70 -28.60 -0.70 -26.55 0 -26.55 0 -27.60 1.20 -0.70 0.80 -1.05 1.90 -1.05 3.15 0 1.85 0.40 2.35 7.15 9.05 5.05 5.10 8.05 7.65 10.35 8.90 5.90 3.25 13.10 5 20 4.90 3.45 -0.05 3.80 0.05 4.85 1.25 0.65 0.75 1.15 1.70 1.15 2.15 0 0.80 -7.15 8.30 -20.45 21.40 -4.45 4.40 -8.20 8.10 -8.30 8.20 -0.10 0.10 -4.95 0.20 -10.70 0.25 -10.35 0.05 -10.50 0.05 -11.75 1.25 -0.90 0.85 -1.30 1.75 -1.30 2.95 0 1.55 0.70 2.45 6.40 8.25 9.90 10.10 12.75 12.75 14.60 13.55 1.50 0.65 5.85 0.75 28.80 0.80 27 0 27 0 28.10 -1.50z"/>
  <path d="M45.75 56.45 c-2.20 -1.95 -2.35 -4 -0.40 -6.20 1.10 -1.25 1.65 -1.50 3.50 -1.45 3.10 0.05 4.40 1.45 4.35 4.55 -0.05 1.95 -0.30 2.50 -1.50 3.50 -2 1.60 -3.80 1.45 -5.95 -0.40z"/>
  <path d="M57.35 56.60 c-1.65 -1.75 -1.85 -4.85 -0.40 -6.65 1.35 -1.70 4.95 -1.70 6.75 0 1.95 1.85 1.85 5 -0.25 6.75 -2.10 1.75 -4.35 1.75 -6.10 -0.10z"/>
  <path d="M69.35 57 c-1.95 -1.55 -2.40 -3.50 -1.35 -5.85 0.75 -1.65 1.20 -2.10 2.70 -2.35 2.45 -0.45 4.35 0.50 5.45 2.85 0.80 1.70 0.80 2 0.10 3.35 -1.55 2.95 -4.55 3.85 -6.90 2z"/>
 </g>
</svg>